<svg xmlns="http://www.w3.org/2000/svg"  fill="#fff"  viewBox="0 0 50 50" width="50px" height="50px"><path d="M 7 3 C 4.800781 3 3 4.800781 3 7 C 3 9.199219 4.800781 11 7 11 C 7.308594 11 7.617188 10.941406 7.90625 10.875 C 8.539063 11.828125 9.898438 13.371094 12.1875 13.84375 C 10.925781 16.527344 10.171875 19.683594 10.0625 23.15625 C 9.488281 23.222656 8.96875 23.238281 8.21875 23.46875 C 7.085938 23.8125 5.851563 24.34375 5.15625 25.5 C 5.03125 25.695313 4.972656 25.925781 5 26.15625 C 5.179688 27.339844 5.75 29.117188 6.6875 30.75 C 7.15625 31.566406 7.738281 32.332031 8.4375 32.9375 C 8.957031 33.390625 9.585938 33.6875 10.28125 33.84375 C 11.148438 37.03125 13.078125 40.167969 15.625 42.59375 C 18.34375 45.179688 21.671875 47 25 47 C 28.328125 47 31.65625 45.179688 34.375 42.59375 C 36.921875 40.167969 38.851563 37.03125 39.71875 33.84375 C 40.414063 33.6875 41.042969 33.390625 41.5625 32.9375 C 42.261719 32.332031 42.84375 31.566406 43.3125 30.75 C 44.25 29.117188 44.820313 27.339844 45 26.15625 C 45.027344 25.925781 44.96875 25.695313 44.84375 25.5 C 44.148438 24.34375 42.914063 23.8125 41.78125 23.46875 C 41.03125 23.238281 40.511719 23.222656 39.9375 23.15625 C 39.828125 19.683594 39.074219 16.527344 37.8125 13.84375 C 40.101563 13.371094 41.460938 11.828125 42.09375 10.875 C 42.382813 10.941406 42.691406 11 43 11 C 45.199219 11 47 9.199219 47 7 C 47 4.800781 45.199219 3 43 3 C 40.800781 3 39 4.800781 39 7 C 39 8.167969 39.535156 9.203125 40.34375 9.9375 C 39.851563 10.679688 38.765625 11.820313 36.8125 11.96875 C 36.480469 11.433594 36.128906 10.921875 35.75 10.4375 C 33.074219 7.046875 29.265625 5 25 5 C 20.734375 5 16.925781 7.046875 14.25 10.4375 C 13.871094 10.921875 13.519531 11.433594 13.1875 11.96875 C 11.234375 11.820313 10.148438 10.679688 9.65625 9.9375 C 10.464844 9.203125 11 8.167969 11 7 C 11 4.800781 9.199219 3 7 3 Z M 7 5 C 8.117188 5 9 5.882813 9 7 C 9 8.117188 8.117188 9 7 9 C 5.882813 9 5 8.117188 5 7 C 5 5.882813 5.882813 5 7 5 Z M 43 5 C 44.117188 5 45 5.882813 45 7 C 45 8.117188 44.117188 9 43 9 C 42.722656 9 42.457031 8.945313 42.21875 8.84375 C 42.210938 8.839844 42.195313 8.847656 42.1875 8.84375 C 41.480469 8.535156 41 7.828125 41 7 C 41 5.882813 41.882813 5 43 5 Z M 25 7 C 28.632813 7 31.835938 8.703125 34.1875 11.6875 C 36.539063 14.671875 38 18.945313 38 24 C 38 24.550781 38.449219 25 39 25 C 39.265625 25 40.300781 25.125 41.21875 25.40625 C 41.976563 25.636719 42.480469 25.996094 42.8125 26.3125 C 42.621094 27.203125 42.253906 28.546875 41.5625 29.75 C 41.167969 30.433594 40.703125 31.042969 40.25 31.4375 C 39.796875 31.832031 39.402344 32 39 32 C 38.535156 32.003906 38.132813 32.328125 38.03125 32.78125 C 37.386719 35.675781 35.457031 38.785156 33 41.125 C 30.542969 43.464844 27.570313 45 25 45 C 22.429688 45 19.457031 43.464844 17 41.125 C 14.542969 38.785156 12.613281 35.675781 11.96875 32.78125 C 11.867188 32.328125 11.464844 32.003906 11 32 C 10.597656 32 10.203125 31.832031 9.75 31.4375 C 9.296875 31.042969 8.832031 30.433594 8.4375 29.75 C 7.746094 28.546875 7.378906 27.203125 7.1875 26.3125 C 7.519531 25.996094 8.023438 25.636719 8.78125 25.40625 C 9.699219 25.125 10.734375 25 11 25 C 11.550781 25 12 24.550781 12 24 C 12 18.945313 13.460938 14.671875 15.8125 11.6875 C 18.164063 8.703125 21.367188 7 25 7 Z M 19.5 22 C 18.378906 22 17.449219 22.738281 16.875 23.65625 C 16.300781 24.574219 16 25.726563 16 27 C 16 28.273438 16.300781 29.425781 16.875 30.34375 C 17.449219 31.261719 18.378906 32 19.5 32 C 20.621094 32 21.550781 31.261719 22.125 30.34375 C 22.699219 29.425781 23 28.273438 23 27 C 23 25.726563 22.699219 24.574219 22.125 23.65625 C 21.550781 22.738281 20.621094 22 19.5 22 Z M 30.5 22 C 29.378906 22 28.449219 22.738281 27.875 23.65625 C 27.300781 24.574219 27 25.726563 27 27 C 27 28.273438 27.300781 29.425781 27.875 30.34375 C 28.449219 31.261719 29.378906 32 30.5 32 C 31.621094 32 32.550781 31.261719 33.125 30.34375 C 33.699219 29.425781 34 28.273438 34 27 C 34 25.726563 33.699219 24.574219 33.125 23.65625 C 32.550781 22.738281 31.621094 22 30.5 22 Z M 19.5 24 C 19.757813 24 20.074219 24.15625 20.40625 24.6875 C 20.738281 25.21875 21 26.0625 21 27 C 21 27.9375 20.738281 28.78125 20.40625 29.3125 C 20.074219 29.84375 19.757813 30 19.5 30 C 19.242188 30 18.925781 29.84375 18.59375 29.3125 C 18.261719 28.78125 18 27.9375 18 27 C 18 26.0625 18.261719 25.21875 18.59375 24.6875 C 18.925781 24.15625 19.242188 24 19.5 24 Z M 30.5 24 C 30.757813 24 31.074219 24.15625 31.40625 24.6875 C 31.738281 25.21875 32 26.0625 32 27 C 32 27.9375 31.738281 28.78125 31.40625 29.3125 C 31.074219 29.84375 30.757813 30 30.5 30 C 30.242188 30 29.925781 29.84375 29.59375 29.3125 C 29.261719 28.78125 29 27.9375 29 27 C 29 26.0625 29.261719 25.21875 29.59375 24.6875 C 29.925781 24.15625 30.242188 24 30.5 24 Z M 25 34.5 C 21.605469 34.5 19.25 37.34375 19.25 37.34375 C 18.992188 37.640625 18.933594 38.054688 19.09375 38.414063 C 19.253906 38.769531 19.609375 39 20 39 L 30 39 C 30.390625 39 30.746094 38.769531 30.90625 38.414063 C 31.066406 38.054688 31.007813 37.640625 30.75 37.34375 C 30.75 37.34375 28.394531 34.5 25 34.5 Z M 25 36.5 C 25.667969 36.5 26.289063 36.722656 26.875 37 L 23.125 37 C 23.710938 36.722656 24.332031 36.5 25 36.5 Z"/></svg>